<?xml version="1.0" encoding="UTF-8"?>
<svg viewBox="0 0 1011.9114 967.52112" xmlns="http://www.w3.org/2000/svg">
 <g transform="matrix(.852 .07262 -.07262 .852 2204.1 300.97)">
  <path transform="matrix(1.1652 -.09932 .09932 1.1652 -3533.7 1295.8)" d="m1061.5-1144.8h612.51a4.1032 4.6374 0 0 1 4.1032 4.6374v542.87a4.1032 4.6374 0 0 1 -4.1032 4.6374h-612.51a4.1032 4.6374 0 0 1 -4.1032 -4.6374v-542.87a4.1032 4.6374 0 0 1 4.1032 -4.6374" fill="#fff" stroke="#000" stroke-miterlimit="3.5032" stroke-width="7"/>
  <path d="m-2402.4-137.23 51.683 606.4 706.31-60.2-51.683-606.4-706.31 60.2zm7.569 6.3802 692.36-59.011 50.494 592.45-692.36 59.011-50.494-592.45z" fill="#fff"/>
  <path d="m-1638.2-21.989c50.086 5.1966 42.452 86.037-2.0256 112.74-30.306 40.197-82.978 31.749-125.84 28.757-32.151 6.5318-56.062-26.001-22.351-45.529 35.34-24.307 94.451 7.9083 114.08-45.059 12.023-16.987 21.372-39.101 36.138-50.914z" fill="#2293f5" stroke="#000" stroke-miterlimit="3.5032" stroke-width="8.1863"/>
  <path d="m-1540.8-62.202c-31.49 16.562-108.03 7.8742-87.03 65.601l29.337 144.99c-14.479 43.566-14.063 89.886-6.6472 134.69l26.778 294.86c37.958 15.785 79.777-15.646 61.007-56.77 1.4643-87.528 2.9286-175.06 4.393-262.59l9.5882 302.52c37.981 14.883 79.384-14.394 60.874-56.017 1.2155-98.056 28.575-204.8 3.8678-294.23s-2.5818-176.2-24.418-267.05c-24.914-9.996-51.967-2.288-77.749-6.025z" fill="#2293f5" stroke="#000" stroke-miterlimit="3.5032" stroke-width="8.1863"/>
  <path d="m-1462.4 563.64c-48.641-18.218-37.912 74.482 8.6758 47.461 29.314-8.3086 3.5284-37.15-8.6758-47.461z" fill="#f58423" stroke="#000" stroke-miterlimit="3.5032" stroke-width="8.1863"/>
  <path d="m-1526.8 583.65c-39.002-21.599-83.285 52.104-29.897 60.292 34.577 2.8219 42.136-34.612 29.897-60.292z" fill="#f58423" stroke="#000" stroke-miterlimit="3.5032" stroke-width="8.1863"/>
  <path d="m-1510.8-113.7c22.567 54.305-61.081 99.686-73.848 37.807-25.819-43.537 21.328-130.21 59.052-79.163 8.1676 11.586 13.071 26.309 14.795 41.356z" fill="#f58423" stroke="#000" stroke-miterlimit="3.5032" stroke-width="8.1863"/>
  <path d="m-1786.9 97.165c-22.186 72.244-124.39-27.792-34.078-27.362 16.087 7e-3 37.296 8.2842 34.078 27.362z" fill="#f58423" stroke="#000" stroke-miterlimit="3.5032" stroke-width="8.1863"/>
  <path d="m-1457.2-59.584c-29.296-1.2047-26.288 112.85 8.5212 161.56-39.76 27.556 29.872 131.12 35.657 48.051 50.372-74.75-26.939-199.73-44.178-209.62z" fill="#2293f5" stroke="#000" stroke-miterlimit="3.5032" stroke-width="8.1863"/>
  <path d="m-1447.3 202.68c-53.63-27.598 47.357-90.418 28.853-21.836-3.2399 12.226-14.16 27.117-28.853 21.836z" fill="#f58423" stroke="#000" stroke-miterlimit="3.5032" stroke-width="8.1863"/>
 </g>
 <g transform="matrix(-1 0 0 1 -2853.9 242.66)" stroke="#000" stroke-miterlimit="3.5032" stroke-width="7">
  <path d="m-3686.4 198.16c54.839 55.716 37.168 125.36 16.548 194.64-0.6909 26.92-13.76 71.842-27.682 24.47-4.6954-61.196-23.053-165.76-14.681-187.97-0.6007-21.971 14.823-32.009 25.815-31.136z" fill="#f58423"/>
  <path d="m-3007.4 612.42c-53.239-9.0812 4.2461 83.191 23.183 30.588l-23.183-30.588z" fill="#f58423"/>
  <path d="m-3029.2 640.43c-49.105-17.74-49.106 66.723-0.6835 36.728 11.224-7.2918-0.9075-25.84 0.6835-36.728z" fill="#f58423"/>
  <path d="m-2905.2 110.55c-24.865 10.63-27.097 81.917-19.658 123.89-43.38-6.2281-73.979 28.176-47.728 65.77 59.532 5.9724 115.83-50.313 100.3-107.92-9.9497-29.517-24.673-86.652-32.918-81.733z" fill="#2293f5"/>
  <path d="m-2885.4 178.64c-54.839 55.716-37.168 125.36-16.548 194.64 0.6909 26.92 13.76 71.842 27.682 24.47 4.6954-61.196 23.053-165.76 14.681-187.97 0.6007-21.971-14.823-32.009-25.815-31.136z" fill="#f58423"/>
  <path d="m-3120.3 112.54c22.543-2.764 31.216 68.755 10.174 110.92 37.283 24.156 100.59 48.3 45.267 90.254-50.918-24.518-91.816-66.908-78.512-128.12 0.621-27.587 13.714-51.865 23.071-73.049z" fill="#2293f5"/>
  <path d="m-3015.1 77.819c-33.79 19.32-125.29 1.9967-105.41 55.476 12.758 59.002 31.912 118.12 22 179 1.7761 109.97 17.367 219.35 24.496 329.11-19.262 53.124 87.169 41.436 63.742-6.9232l3.0744-245.21 0.2463 261.6c25.627-17.91 21.839-77.767 32.719-110.24 14.814-91.571 36.924-182.47 37.711-275.52 8.0237-52.851 22.715-104.52 32.854-157.04l-111.43-30.252z" fill="#2293f5"/>
  <path d="m-3087 116.52c5.7409 89.025-120.71 20.48-62.431-34.924 24.266-35.036 67.902 2.5944 62.431 34.924z" fill="#f58423"/>
  <path d="m-3120.8 225.35c30.603-58.467 67.923 50.181 4.2235 15.012l-3.9019-6.766-0.3216-8.2464z" fill="#f58423"/>
  <path d="m-2967.9 25.585c13.121 86.33-120.27 46.319-77.405-23.269 15.185-58.401 85.502-28.048 77.405 23.269z" fill="#f58423"/>
  <path d="m-3141.2 599.21c-45.19-62.847-42.037 73.083-6.9106 25.051l6.9106-25.051z" fill="#f58423"/>
  <path d="m-3117.2 635.72c-60.175-13.213-6.2148 96.025 16.077 33.146-1.1529-12.723-12.986-21.043-16.077-33.146z" fill="#f58423"/>
  <path d="m-3027.9 187.13c16.488 36.49 44.088 73.774-12.18 84.753-26.914 22.749-45.974 31.225-37.861-11.738-12.336-42.271 22.83-50.965 50.041-73.016z" fill="#f58423"/>
  <path d="m-3128.6 152.01c-39.96 5.1246-93.729 0.11551-65.998 54.912 11.813 52.818-3.4585 96.901-8.1894 148.25-9.1051 98.815 31.094 210.41 47.116 315.52 60.115 16.338 56.652-32.652 46.478-75.675l-17.805-170.57 13.606 119.73c16.125-57.456 71.084-149.91 55.906-197.01-14.837-46.047-14.732-89.006-6.6069-134.96 28.87-57.254-27.024-42.225-64.508-60.186z" fill="#2293f5"/>
  <path d="m-3195.3 160.2c5.9879 40.187 31.796 126.04-36.168 115.07-11.255-45.405-3.2117-85.886 36.168-115.07z" fill="#f58423"/>
  <path d="m-3153.7 130.58c-22.371-4.8773-35.118 84.74-14.782 127.52-34.216 16.215 5.6585 106.58 21.076 42.376 48.609-51.706 5.6583-159.86-6.2947-169.9z" fill="#2293f5"/>
  <path d="m-3384.3 646.63c68.402-24.217 11.623 88.798-13.101 28.092-0.9945-11.102 6.7989-20.069 13.101-28.092z" fill="#f58423"/>
  <path d="m-3268.2 648.97c-50.241-24.692-80.558 81.53-17.551 61.121 22.784-12.15 12.327-40.638 17.551-61.121z" fill="#f58423"/>
  <path d="m-3319.6 636.67c-52.956-20.213-15.814 68.586 11.638 27.396-6.5389-7.8622-7.5597-18.359-11.638-27.396z" fill="#f58423"/>
  <path d="m-3268.6 170.44c-9.8956 27.77-18.587 110.63 31.74 77.969 46.74-25.074-21.118-80.47-31.74-77.969z" fill="#f58423"/>
  <path d="m-3343.9 152.06c-45.816 10.67-91.435 22.298-60.144 75.964 19.088 45.887 2.9826 90.254-3.7393 137.05-9.822 68.381 7.1064 139.72 8.8361 209.59 3.8858 40.226-10.198 133.75 50.764 88.36 4.7273-59.656 7.4796-183.12 3.0686-204.73-1.2558 67.866-1.8536 135.74-1.9799 203.62 56.382 25.748 32.67-76.499 51.167-107.5 12.33-65.294 52.382-137.27 36.99-195.88-16.84-64.123 9.9109-141.97-10.595-188.82l-74.367-17.658z" fill="#2293f5"/>
  <path d="m-3302.6 107.58c5.7409 89.025-120.71 20.48-62.431-34.924 24.266-35.036 67.902 2.5943 62.431 34.924z" fill="#f58423"/>
  <path d="m-3234.7 234.83c20.998-62.562 74.988 38.84 6.5385 14.158l-4.9202-6.0658-1.6183-8.0925v2e-5z" fill="#f58423"/>
  <path d="m-3657.4 675.88c-71.139-12.356-13.127 76.18 20.991 31.896-4.4836-12.327-16.068-19.835-20.991-31.896z" fill="#f58423"/>
  <path d="m-3594.5 652.5c-79.95-4.9927 19.765 74.673 19.03 28.459l-19.03-28.459z" fill="#f58423"/>
  <path d="m-3226.6 655.55c-67.051-17.048-12.644 90.985 20.003 38.17-0.5147-15.177-15.78-24.3-20.003-38.17z" fill="#f58423"/>
  <path d="m-3434.5 665.77c-66.797-17.144-13.257 86.568 6.339 28.619l-6.339-28.619z" fill="#f58423"/>
  <path d="m-3497.7 657.61c-50.241-24.692-80.558 81.53-17.551 61.121 22.784-12.15 12.327-40.638 17.551-61.121z" fill="#f58423"/>
  <path d="m-3009.2 644.1c68.402-24.217 11.624 88.798-13.101 28.092-0.9944-11.102 6.7989-20.069 13.101-28.092z" fill="#f58423"/>
  <path d="m-2941.3 639.69c-52.956-20.213-15.814 68.586 11.638 27.397-6.5388-7.8623-7.5597-18.359-11.638-27.397z" fill="#f58423"/>
  <path d="m-3213.4 274.84c37.778 55.1-85.993 43.549-26.669-2.084 8.1849-4.5099 19.536-4.7584 26.669 2.084z" fill="#f58423"/>
  <path d="m-2897.3 445.98c-40.995-51.714 73.446-41.683 15.434 2.2388l-7.7676 0.81708-7.6661-3.0559-1e-4 -2e-5z" fill="#f58423"/>
  <path d="m-3702.1 459.46c-40.995-51.714 73.446-41.683 15.434 2.2388l-7.7676 0.81708-7.6661-3.0559v-3e-5z" fill="#f58423"/>
  <path d="m-3635.9 170.82c-41.82 13.198-90.619 22.716-59.116 74.586 29.92 59.228-3.2231 111.66-5.4938 171.18-3.7291 97.759 7.135 197.07 11.102 295.57 61.486 13.457 37.104-60.307 47.399-96.777l12.747-143.18c0.9189 72.428 1.8377 144.86 2.7566 217.29 68.727 19.044 40.172-75.237 56.808-114.75 8.7708-61.619 37.417-127.16 26.312-184.86-10.811-56.17-27.81-110.15-17.953-167.62 21.921-62.02-34.522-38.339-74.563-51.445z" fill="#2293f5"/>
  <path d="m-3553.8 145.76c-28.515 25.742 1.1857 116.74 63.949 102.44 56.725-27.212-43.527-88.227-60.402-102.39l-3.5464-0.0473z" fill="#f58423"/>
  <path d="m-3605.5 115.65c21.608 64.301-84.208 61.813-71.761-2.292 6.9598-50.569 66.586-48.023 71.761 2.292z" fill="#f58423"/>
  <path d="m-3365.7 135.24c-30.321 1.7656-30.165 88.736-22.727 130.7-43.38-6.2281-73.979 28.176-47.728 65.77 59.532 5.9724 115.83-50.313 100.3-107.92-9.9497-29.517-18.876-88.016-29.849-88.552z" fill="#2293f5"/>
  <path d="m-3439.3 93.376c9.8846 89.286-123.59 35.6-70.259-31.697 21.527-45.703 78.392-9.5126 70.259 31.697z" fill="#f58423"/>
  <path d="m-3219.9 59.932c9.8847 89.286-123.59 35.6-70.259-31.697 21.527-45.703 78.392-9.5126 70.259 31.697z" fill="#f58423"/>
  <path d="m-3514.8 364.13c-14.947 65.114-90.284-33.766-16.531-21.031 8.8618 2.9668 16.733 11.149 16.531 21.031z" fill="#f58423"/>
  <path d="m-3430.6 300.28c-14.947 65.114-90.284-33.766-16.531-21.031 8.8618 2.9668 16.733 11.149 16.531 21.031z" fill="#f58423"/>
  <path d="m-3229.9 297.23c-14.947 65.114-90.284-33.766-16.531-21.031 8.8618 2.9667 16.733 11.149 16.531 21.031z" fill="#f58423"/>
  <path d="m-3604 299.92c25.31-60.945 72.096 43.976 5.535 14.58l-4.4851-6.3943-1.0499-8.1857v-2e-5z" fill="#f58423"/>
  <path d="m-3351.9 149.31c17.308 1.8781 46.708 57.91 25.372 94.304 34.745 12.997 96.621 36.113 42.576 68.9-53.519-12.869-120.38-41.098-81.185-106.47l2.0866-8.9426c0.3237-1.3875 0.6475-2.775 0.9712-4.1625 3.3931-14.542 6.1042-41.699 10.179-43.625z" fill="#2293f5"/>
  <path d="m-2960.9 159.79c-45.816 10.67-91.435 22.298-60.144 75.964 19.088 45.887 2.9827 90.254-3.7392 137.05-9.8222 68.381 7.1064 139.72 8.8361 209.59 3.8858 40.226-10.198 133.75 50.764 88.36 4.7273-59.656 7.4797-183.12 3.0687-204.73-1.2557 67.866-1.8536 135.74-1.9798 203.62 56.382 25.748 32.67-76.499 51.166-107.5 12.33-65.294 52.382-137.27 36.99-195.88-16.84-64.123 9.9108-141.97-10.596-188.82l-74.367-17.658z" fill="#2293f5"/>
  <path d="m-2911.8 112.71c-8.3173 88.821-122.43 1.2604-56.168-44.298 29.469-30.789 66.651 13.23 56.168 44.298z" fill="#f58423"/>
  <path d="m-3259.2 118.02c-39.07 17.614-122.19 8.1123-88.845 70.77 19.483 71.246 15.345 128.22 9.6303 212.92s8.2347 196.11 12.774 294.13c36.81 4.8151 73.62 9.6299 61.112-39.826l10.772-230.69c-6.667 88.467-13.334 176.93-20.001 265.4 79.043 22.089 61.594-70.152 75.289-121.26 10.311-65.144 37.526-131.64 30.933-195.43s6.101-127.6 9.1007-191.25c10.261-35.774 11.109-64.205-33.229-57.382l-67.537-7.3812z" fill="#2293f5"/>
  <path d="m-3585.3 165.72c22.371-4.8773 35.118 84.74 14.782 127.52 34.216 16.215-5.6585 106.58-21.076 42.376-48.609-51.706-5.6583-159.86 6.2947-169.9z" fill="#2293f5"/>
  <path d="m-3474.6 130.87c-34.861 19.18-122.17 2.8736-100.58 60.303 6.5856 64.437 26.867 129.06 12.543 193.54-0.5136 91.426 10.684 182.78 14.341 274.22-11.578 42.7 20.824 66.084 57.026 44.138l14.501-272.07c1.4748 91.028 2.9495 182.06 4.4243 273.09 74.637 22.626 45.632-76.634 61.22-119.88 7.432-71.424 21.644-143.12 23.204-214.57-4.9316-67.99 14.921-135.08 19.194-202.81 16.938-46.6-77.465-23.14-105.87-35.956z" fill="#2293f5"/>
 </g>
</svg>
